<?xml version="1.0" standalone="no"?>
<!DOCTYPE svg PUBLIC "-//W3C//DTD SVG 20010904//EN"
 "http://www.w3.org/TR/2001/REC-SVG-20010904/DTD/svg10.dtd">
<svg version="1.0" xmlns="http://www.w3.org/2000/svg"
 width="135.000000pt" height="135.000000pt" viewBox="0 0 135.000000 135.000000"
 preserveAspectRatio="xMidYMid meet">
<metadata>
Created by potrace 1.11, written by Peter Selinger 2001-2013
</metadata>
<g transform="translate(0.000000,135.000000) scale(0.100000,-0.100000)"
fill="#000000" stroke="none">
<path d="M433 1338 c-34 -4 -75 -14 -91 -22 -82 -42 -139 -121 -149 -207 -6
-47 -4 -52 11 -46 10 4 20 7 22 7 2 0 4 13 4 29 0 34 42 116 73 142 12 10 40
28 63 39 38 19 60 20 309 20 305 0 310 -1 355 -81 l25 -44 0 -465 0 -465 -24
-49 c-19 -38 -33 -52 -68 -68 -40 -18 -64 -19 -308 -16 -250 3 -265 4 -292 24
-63 47 -86 142 -52 211 10 21 82 101 159 178 l140 140 0 -177 0 -176 65 0 65
0 0 278 0 277 -272 -2 c-150 -2 -276 -3 -279 -4 -3 -1 -5 -28 -5 -61 1 -57 2
-60 26 -61 14 -1 92 -1 174 -1 l149 0 -147 -145 c-175 -173 -195 -204 -197
-295 -3 -132 61 -233 176 -277 45 -17 76 -18 320 -17 l271 1 59 30 c37 19 72
46 92 73 61 81 63 101 63 568 -1 255 -5 436 -11 460 -24 90 -105 171 -194 195
-45 12 -438 18 -532 7z"/>
<path d="M830 1017 c-52 -26 -29 -107 30 -107 50 0 76 64 40 100 -23 23 -36
24 -70 7z"/>
</g>
</svg>
